<svg xmlns="http://www.w3.org/2000/svg" viewBox="0 0 600 1040" fill="none" stroke="#3C82F6" stroke-width="2.5" stroke-linecap="square" shape-rendering="crispEdges" preserveAspectRatio="xMidYMid slice">
  <!-- Top cluster: two thin bands that pass behind the logo -->
  <line x1="0"   y1="40"  x2="600" y2="40"/>
  <line x1="0"   y1="145" x2="600" y2="145"/>
  <line x1="420" y1="40"  x2="420" y2="240"/>
  <line x1="490" y1="40"  x2="490" y2="145"/>
  <line x1="0"   y1="240" x2="420" y2="240"/>

  <!-- Middle cluster: denser grid -->
  <line x1="190" y1="240" x2="190" y2="440"/>
  <line x1="0"   y1="325" x2="600" y2="325"/>
  <line x1="270" y1="325" x2="270" y2="440"/>
  <line x1="350" y1="325" x2="350" y2="440"/>
  <line x1="430" y1="240" x2="430" y2="545"/>
  <line x1="0"   y1="440" x2="600" y2="440"/>
  <line x1="100" y1="440" x2="100" y2="545"/>
  <line x1="100" y1="500" x2="600" y2="500"/>
  <line x1="510" y1="440" x2="510" y2="625"/>
  <line x1="0"   y1="545" x2="600" y2="545"/>

  <!-- Lower cluster: horizontal rhythm -->
  <line x1="0"   y1="625" x2="600" y2="625"/>
  <line x1="0"   y1="685" x2="600" y2="685"/>
  <line x1="300" y1="625" x2="300" y2="825"/>
  <line x1="0"   y1="745" x2="600" y2="745"/>
  <line x1="100" y1="745" x2="100" y2="895"/>
  <line x1="430" y1="745" x2="430" y2="945"/>
  <line x1="0"   y1="825" x2="600" y2="825"/>
  <line x1="0"   y1="895" x2="600" y2="895"/>
  <line x1="300" y1="895" x2="300" y2="995"/>
  <line x1="490" y1="895" x2="490" y2="995"/>
  <line x1="0"   y1="945" x2="600" y2="945"/>
  <line x1="0"   y1="995" x2="600" y2="995"/>
</svg>
