<svg xmlns="http://www.w3.org/2000/svg" viewBox="0 0 600 1040" fill="none" stroke="#3C82F6" stroke-width="2.5" stroke-linecap="square" shape-rendering="crispEdges" preserveAspectRatio="xMidYMid slice">
  <!-- Top band with small corner cells on the right -->
  <line x1="0"   y1="32"  x2="540" y2="32"/>
  <line x1="510" y1="0"   x2="510" y2="125"/>
  <line x1="540" y1="0"   x2="540" y2="32"/>
  <line x1="540" y1="32"  x2="600" y2="32"/>
  <line x1="0"   y1="125" x2="600" y2="125"/>

  <!-- Second band: wide cells with right-side vertical -->
  <line x1="0"   y1="229" x2="510" y2="229"/>
  <line x1="510" y1="125" x2="510" y2="333"/>
  <line x1="0"   y1="333" x2="600" y2="333"/>

  <!-- Middle section: 4-column grid -->
  <line x1="162" y1="229" x2="162" y2="437"/>
  <line x1="234" y1="333" x2="234" y2="437"/>
  <line x1="288" y1="333" x2="288" y2="437"/>
  <line x1="378" y1="229" x2="378" y2="583"/>
  <line x1="0"   y1="437" x2="600" y2="437"/>

  <!-- Thin band with short vertical -->
  <line x1="100" y1="437" x2="100" y2="500"/>
  <line x1="100" y1="500" x2="600" y2="500"/>
  <line x1="438" y1="437" x2="438" y2="500"/>

  <!-- Closing middle divider -->
  <line x1="0"   y1="583" x2="600" y2="583"/>

  <!-- Lower section: horizontal rhythm with cross-verticals -->
  <line x1="0"   y1="635" x2="600" y2="635"/>
  <line x1="0"   y1="697" x2="600" y2="697"/>
  <line x1="300" y1="635" x2="300" y2="832"/>
  <line x1="0"   y1="770" x2="600" y2="770"/>
  <line x1="100" y1="697" x2="100" y2="895"/>
  <line x1="450" y1="770" x2="450" y2="957"/>
  <line x1="0"   y1="832" x2="600" y2="832"/>
  <line x1="0"   y1="895" x2="600" y2="895"/>
  <line x1="0"   y1="957" x2="600" y2="957"/>
  <line x1="300" y1="895" x2="300" y2="1040"/>
  <line x1="500" y1="895" x2="500" y2="1040"/>
  <line x1="0"   y1="998" x2="600" y2="998"/>
</svg>
